<svg aria-hidden="true" style="position: absolute; width: 0; height: 0; overflow: hidden;" version="1.1" xmlns="http://www.w3.org/2000/svg" xmlns:xlink="http://www.w3.org/1999/xlink">
<defs>
<symbol id="icon-close" viewBox="0 0 32 32">
<path d="M17.4 16l10.5-10.5c0.4-0.4 0.4-1 0-1.4s-1-0.4-1.4 0l-10.5 10.5-10.5-10.5c-0.4-0.4-1-0.4-1.4 0s-0.4 1 0 1.4l10.5 10.5-10.5 10.5c-0.4 0.4-0.4 1 0 1.4 0.2 0.2 0.5 0.3 0.7 0.3s0.5-0.1 0.7-0.3l10.5-10.5 10.5 10.5c0.2 0.2 0.5 0.3 0.7 0.3s0.5-0.1 0.7-0.3c0.4-0.4 0.4-1 0-1.4l-10.5-10.5z"></path>
</symbol>
<symbol id="icon-login-3" viewBox="0 0 32 32">
<path d="M19 30.009c-0.552 0-1-0.448-1-1s0.448-1 1-1h6c0.552 0 1-0.448 1-1v-2c0-0.552 0.448-1 1-1s1 0.448 1 1v2c0 1.655-1.345 3-3 3h-6z"></path>
<path d="M27 10.009c-0.552 0-1-0.448-1-1v-2c0-0.552-0.448-1-1-1h-6c-0.552 0-1-0.448-1-1s0.448-1 1-1h6c1.655 0 3 1.345 3 3v2c0 0.551-0.448 1-1 1z"></path>
<path d="M13.999 32.008c-0.095 0-0.191-0.007-0.285-0.021l-11.996-1.713c-0.98-0.139-1.717-0.989-1.717-1.98v-23.323c0-0.937 0.664-1.76 1.581-1.956l11.969-2.955c0.156-0.033 0.3-0.049 0.443-0.049 0.94 0 1.765 0.664 1.961 1.579 0.031 0.137 0.045 0.279 0.045 0.42v28c0 0.535-0.208 1.037-0.587 1.415-0.377 0.377-0.88 0.584-1.415 0.584v0zM2.031 4.963l-0.031 23.332c0 0 12.001 1.713 12.003 1.713l-0.003-28-11.969 2.955z"></path>
<path d="M24 22.008c-0.267 0-0.519-0.104-0.707-0.293l-4-4c-0.017-0.017-0.035-0.037-0.051-0.059-0.073-0.084-0.128-0.172-0.167-0.267v0c-0.008-0.020-0.015-0.040-0.020-0.060-0.031-0.091-0.047-0.184-0.052-0.281-0.001-0.033 0-0.065 0.003-0.096 0.007-0.096 0.023-0.179 0.049-0.257 0.012-0.037 0.024-0.072 0.041-0.108 0.047-0.105 0.112-0.203 0.196-0.285l4-4c0.189-0.189 0.44-0.293 0.707-0.293s0.519 0.104 0.707 0.293c0.189 0.188 0.293 0.44 0.293 0.707s-0.104 0.519-0.293 0.707l-2.293 2.293h8.585c0.552 0 1 0.448 1 1s-0.448 1-1 1h-8.585l2.293 2.293c0.189 0.189 0.293 0.44 0.293 0.707s-0.104 0.519-0.293 0.707-0.44 0.293-0.707 0.293z"></path>
<path d="M10.5 17.509c-0.827 0-1.5-0.673-1.5-1.5 0-0.764 0.567-1.4 1.323-1.489 0.059-0.011 0.117-0.016 0.177-0.016 0.403 0.001 0.78 0.159 1.063 0.441 0.283 0.284 0.439 0.661 0.437 1.061 0 0.828-0.673 1.503-1.5 1.503z"></path>
</symbol>
<symbol id="icon-single-neutral-circle" viewBox="0 0 32 32">
<path d="M16 21c-4.411 0-8-3.589-8-8s3.589-8 8-8 8 3.589 8 8-3.589 8-8 8zM16 7c-3.308 0-6 2.692-6 6s2.692 6 6 6c3.308 0 6-2.692 6-6s-2.692-6-6-6z"></path>
<path d="M16 32c-3.569 0-6.948-1.157-9.776-3.347-0.028-0.016-0.088-0.051-0.147-0.109-0.007-0.007-0.015-0.015-0.021-0.023-3.849-3.063-6.056-7.623-6.056-12.521 0-8.823 7.177-16 16-16s16 7.177 16 16c0 4.899-2.207 9.459-6.057 12.521-0.007 0.008-0.013 0.015-0.020 0.021-0.057 0.057-0.116 0.092-0.149 0.112-2.825 2.188-6.204 3.345-9.773 3.345zM8.379 27.735c2.275 1.484 4.896 2.265 7.621 2.265 2.727 0 5.348-0.781 7.623-2.265-2.139-1.763-4.821-2.727-7.621-2.727-2.8-0.001-5.483 0.964-7.623 2.727zM16 2c-7.72 0-14 6.28-14 14 0 4.031 1.725 7.833 4.749 10.499 2.553-2.253 5.821-3.489 9.251-3.489 3.431 0 6.697 1.236 9.251 3.488 3.024-2.667 4.749-6.468 4.749-10.499 0-7.719-6.28-13.999-14-13.999z"></path>
</symbol>
<symbol id="icon-navigation-menu" viewBox="0 0 32 32">
<path d="M3 25.004c-0.552 0-1-0.448-1-1s0.448-1 1-1h26c0.552 0 1 0.448 1 1s-0.448 1-1 1h-26z"></path>
<path d="M3 17.004c-0.552 0-1-0.448-1-1s0.448-1 1-1h26c0.552 0 1 0.448 1 1s-0.448 1-1 1h-26z"></path>
<path d="M3 9.004c-0.552 0-1-0.448-1-1s0.448-1 1-1h26c0.552 0 1 0.448 1 1s-0.448 1-1 1h-26z"></path>
</symbol>
<symbol id="icon-building-house" viewBox="0 0 32 32">
<path d="M3.001 32c-0.552 0-1-0.448-1-1v-5h-1c-0.387 0-0.741-0.227-0.905-0.576s-0.111-0.767 0.137-1.064l5-6c0.191-0.229 0.471-0.36 0.768-0.36h9c0.112 0 0.223 0.020 0.34 0.063 0.031 0.012 0.059 0.024 0.087 0.039 0.073 0.035 0.143 0.079 0.205 0.131 0.027 0.019 0.055 0.041 0.075 0.061l6 6c0.389 0.389 0.389 1.024 0 1.415-0.189 0.189-0.44 0.293-0.707 0.293s-0.519-0.104-0.707-0.293l-0.293-0.293v5.585c0 0.552-0.448 1-1 1h-16zM18.001 30v-6.585l-2.933-2.933-3.067 3.68v5.839h2v-3c0-0.552 0.448-1 1-1s1 0.448 1 1v3h2zM10.001 30v-4h-6v4h6zM9.532 24l3.333-4h-6.396l-3.333 4h6.396z"></path>
<path d="M25.001 26c-0.552 0-1-0.448-1-1s0.448-1 1-1h3v-16.585l-4.953-4.953-5.047 5.732v6.808c0 0.552-0.448 1-1 1s-1-0.448-1-1v-5.003c-0.015 0-6 0.001-6 0.001v5c0 0.552-0.448 1-1 1s-1-0.448-1-1v-5h-1.044c-0.392 0-0.749-0.231-0.911-0.588-0.163-0.357-0.1-0.779 0.16-1.072l7.044-8c0.189-0.216 0.464-0.34 0.751-0.34h9c0.112 0 0.224 0.021 0.34 0.063 0.017 0.007 0.064 0.027 0.080 0.035 0.079 0.037 0.148 0.081 0.211 0.132 0.028 0.020 0.056 0.041 0.076 0.063l8 8c0.189 0.188 0.293 0.44 0.293 0.707s-0.104 0.519-0.293 0.707-0.44 0.293-0.707 0.293-0.519-0.104-0.707-0.293l-0.293-0.293v15.588c0 0.552-0.448 1-1 1h-4zM15.505 8l5.283-6h-6.335l-5.284 6h6.336z"></path>
<path d="M21.001 12c-0.552 0-1-0.448-1-1v-1c0-0.552 0.448-1 1-1s1 0.448 1 1v1c0 0.552-0.449 1-1 1z"></path>
<path d="M25.001 12c-0.552 0-1-0.448-1-1v-1c0-0.552 0.448-1 1-1s1 0.448 1 1v1c0 0.552-0.449 1-1 1z"></path>
<path d="M21.001 17c-0.552 0-1-0.448-1-1v-1c0-0.552 0.448-1 1-1s1 0.448 1 1v1c0 0.552-0.449 1-1 1z"></path>
<path d="M25.001 17c-0.552 0-1-0.448-1-1v-1c0-0.552 0.448-1 1-1s1 0.448 1 1v1c0 0.552-0.449 1-1 1z"></path>
<path d="M25.001 22c-0.552 0-1-0.448-1-1v-1c0-0.552 0.448-1 1-1s1 0.448 1 1v1c0 0.552-0.449 1-1 1z"></path>
</symbol>
<symbol id="icon-building-modern" viewBox="0 0 32 32">
<path d="M1 32c-0.552 0-1-0.448-1-1s0.448-1 1-1h1v-15.667c0-1.287 1.047-2.333 2.333-2.333h11.333c1.287 0 2.333 1.047 2.333 2.333v16.667c0 0.552-0.448 1-1 1h-16zM16 30v-15.667c0-0.184-0.149-0.333-0.333-0.333h-11.333c-0.184 0-0.333 0.149-0.333 0.333v1.667h2c0.552 0 1 0.448 1 1s-0.448 1-1 1h-2v12h2v-3c0-1.655 1.345-3 3-3s3 1.345 3 3v3h4zM10 30v-3c0-0.552-0.448-1-1-1s-1 0.448-1 1v3h2z"></path>
<path d="M21 32c-0.552 0-1-0.448-1-1v-6c0-1.655 1.345-3 3-3s3 1.345 3 3v5h2v-27c0-0.552-0.448-1-1-1h-12c-0.552 0-1 0.448-1 1v1h5c0.552 0 1 0.448 1 1s-0.448 1-1 1h-5v2h1c0.552 0 1 0.448 1 1s-0.448 1-1 1h-2c-0.552 0-1-0.448-1-1v-6c0-1.655 1.345-3 3-3h12c1.655 0 3 1.345 3 3v27h1c0.552 0 1 0.448 1 1s-0.448 1-1 1h-10zM24 30v-5c0-0.552-0.448-1-1-1s-1 0.448-1 1v5h2z"></path>
</symbol>
<symbol id="icon-business-contract-approve" viewBox="0 0 32 32">
<path d="M10.001 30c-1.655 0-3-1.345-3-3v-8.764l-0.179-0.151c-2.4-2.019-4.881-4.108-4.82-6.675v-5.584l-1.785-2.249c-0.343-0.432-0.269-1.063 0.163-1.405 0.176-0.139 0.396-0.216 0.62-0.216 0.307 0 0.593 0.137 0.784 0.379l2 2.523c0.14 0.176 0.217 0.396 0.217 0.621v5.956c-0.031 1.303 1.276 2.675 3 4.176v-4.343l-0.741-0.759c-0.385-0.395-0.377-1.029 0.017-1.415 0.188-0.184 0.436-0.284 0.699-0.284 0.272 0 0.525 0.107 0.716 0.301l0.948 0.971c0.056 0.047 0.107 0.099 0.151 0.153l1.26 1.291c0.119 0.121 0.277 0.188 0.448 0.188 0.164 0 0.319-0.063 0.436-0.176 0.119-0.115 0.185-0.271 0.187-0.437 0.003-0.167-0.061-0.324-0.177-0.444l-3.667-3.741c-0.183-0.187-0.284-0.435-0.284-0.699v-1.864c-0.183-1.005-0.564-1.947-1.135-2.796-0.307-0.457-0.185-1.080 0.273-1.388 0.165-0.111 0.357-0.169 0.556-0.169 0.335 0 0.645 0.165 0.832 0.443 0.744 1.109 1.236 2.34 1.46 3.656 0.009 0.057 0.013 0.112 0.013 0.168v1.543l3.383 3.451c0.491 0.504 0.755 1.167 0.745 1.868-0.009 0.7-0.291 1.356-0.792 1.845-0.492 0.48-1.143 0.744-1.831 0.744-0.544 0-1.061-0.163-1.497-0.467v13.749c0 0.552 0.448 1 1 1h10c0.552 0 1 0.448 1 1s-0.448 1-1 1h-10z"></path>
<path d="M25.319 31.995c-0.335 0-0.645-0.165-0.831-0.443-0.744-1.108-1.235-2.336-1.459-3.649-0.009-0.055-0.015-0.111-0.015-0.168v-1.54l-3.387-3.452c-1.012-1.039-0.991-2.704 0.045-3.713 0.493-0.481 1.128-0.745 1.785-0.745 0.031 0 0.061 0 0.093 0.001 0.688 0.008 1.344 0.291 1.833 0.792l0.617 0.632v-4.636c0-0.388 0.227-0.744 0.579-0.907 0.133-0.061 0.276-0.093 0.421-0.093 0.236 0 0.464 0.084 0.644 0.236 2.416 2.041 4.412 3.923 4.356 6.281v5.583l1.784 2.249c0.165 0.209 0.24 0.471 0.209 0.736s-0.163 0.503-0.372 0.669c-0.176 0.139-0.396 0.216-0.621 0.216v0c-0.307 0-0.593-0.137-0.784-0.379l-2-2.523c-0.139-0.176-0.216-0.396-0.216-0.621v-5.955c0.025-1.069-0.9-2.216-2-3.271v4.868c0 0.408-0.244 0.772-0.623 0.927-0.12 0.049-0.247 0.073-0.376 0.073-0.268 0-0.528-0.109-0.716-0.301l-2.333-2.389c-0.117-0.12-0.273-0.187-0.44-0.189-0.112 0.003-0.299 0.036-0.443 0.177-0.247 0.24-0.252 0.636-0.012 0.883l3.671 3.741c0.184 0.188 0.287 0.437 0.287 0.7v1.861c0.183 1.004 0.564 1.943 1.135 2.792 0.149 0.221 0.203 0.488 0.151 0.751s-0.203 0.488-0.424 0.637c-0.168 0.109-0.36 0.168-0.56 0.168z"></path>
<path d="M12.001 25c-0.552 0-1-0.448-1-1s0.448-1 1-1h5.304c0.552 0 1 0.448 1 1s-0.448 1-1 1h-5.304z"></path>
<path d="M12.001 20c-0.552 0-1-0.448-1-1s0.448-1 1-1h2c0.552 0 1 0.448 1 1s-0.449 1-1 1h-2z"></path>
<path d="M21.001 14c-3.86 0-7-3.14-7-7s3.14-7 7-7c0.552 0 1 0.448 1 1s-0.448 1-1 1c-2.757 0-5 2.243-5 5s2.243 5 5 5 5-2.243 5-5c0-0.552 0.448-1 1-1s1 0.448 1 1c0 3.86-3.14 7-7 7z"></path>
<path d="M21.001 9.187c-0.465 0-0.904-0.181-1.235-0.509l-1.724-1.725c-0.389-0.391-0.389-1.024 0-1.415 0.189-0.189 0.44-0.292 0.708-0.292s0.519 0.104 0.708 0.293l1.544 1.545 5.293-5.292c0.189-0.189 0.44-0.293 0.707-0.293s0.519 0.104 0.707 0.293c0.189 0.189 0.293 0.44 0.293 0.707s-0.104 0.519-0.293 0.707l-5.467 5.467c-0.328 0.331-0.767 0.513-1.236 0.515 0 0-0.001 0-0.001 0h-0.004z"></path>
</symbol>
<symbol id="icon-cash-briefcase" viewBox="0 0 32 32">
<path d="M16 26c-0.552 0-1-0.448-1-1v-0.605c-1.739-0.365-3-1.659-3-3.145 0-0.552 0.448-1 1-1s1 0.448 1 1c0 0.591 0.855 1.251 2 1.251 1.144 0 2-0.66 2-1.251 0-0.677-0.916-1.249-2-1.249-2.205 0-4-1.459-4-3.251 0-1.487 1.261-2.779 3-3.144v-0.605c0-0.552 0.448-1 1-1s1 0.448 1 1v0.605c1.739 0.364 3 1.656 3 3.144 0 0.552-0.448 1-1 1s-1-0.448-1-1c0-0.677-0.916-1.249-2-1.249s-2 0.572-2 1.249c0 0.591 0.855 1.251 2 1.251 2.205 0 4 1.457 4 3.249 0 1.487-1.261 2.78-3 3.145v0.605c0 0.552-0.448 1-1 1z"></path>
<path d="M4 30c-1.655 0-3-1.345-3-3v-16c0-1.655 1.345-3 3-3h5.279l1.316-3.949c0.411-1.227 1.553-2.051 2.847-2.051h5.117c1.293 0 2.436 0.824 2.847 2.051l1.316 3.949h5.279c1.655 0 3 1.345 3 3v16c0 1.655-1.345 3-3 3h-24zM4 10c-0.552 0-1 0.448-1 1v16c0 0.552 0.448 1 1 1h24c0.552 0 1-0.448 1-1v-16c0-0.552-0.448-1-1-1h-24zM20.612 8l-1.105-3.317c-0.136-0.408-0.517-0.683-0.948-0.683h-5.117c-0.431 0-0.812 0.275-0.949 0.684l-1.104 3.316h9.224z"></path>
</symbol>
<symbol id="icon-chevron-down" viewBox="0 0 32 32">
<path d="M16 21.333c-0.4 0-0.667-0.133-0.933-0.4l-8-8c-0.533-0.533-0.533-1.333 0-1.867s1.333-0.533 1.867 0l7.067 7.067 7.067-7.067c0.533-0.533 1.333-0.533 1.867 0s0.533 1.333 0 1.867l-8 8c-0.267 0.267-0.533 0.4-0.933 0.4z"></path>
</symbol>
<symbol id="icon-chevron-left" viewBox="0 0 32 32">
<path d="M20 25.333c-0.4 0-0.667-0.133-0.933-0.4l-8-8c-0.533-0.533-0.533-1.333 0-1.867l8-8c0.533-0.533 1.333-0.533 1.867 0s0.533 1.333 0 1.867l-7.067 7.067 7.067 7.067c0.533 0.533 0.533 1.333 0 1.867-0.267 0.267-0.533 0.4-0.933 0.4z"></path>
</symbol>
<symbol id="icon-chevron-right" viewBox="0 0 32 32">
<path d="M12 25.333c-0.4 0-0.667-0.133-0.933-0.4-0.533-0.533-0.533-1.333 0-1.867l7.067-7.067-7.067-7.067c-0.533-0.533-0.533-1.333 0-1.867s1.333-0.533 1.867 0l8 8c0.533 0.533 0.533 1.333 0 1.867l-8 8c-0.267 0.267-0.533 0.4-0.933 0.4z"></path>
</symbol>
<symbol id="icon-chevron-up" viewBox="0 0 32 32">
<path d="M24 21.333c-0.4 0-0.667-0.133-0.933-0.4l-7.067-7.067-7.067 7.067c-0.533 0.533-1.333 0.533-1.867 0s-0.533-1.333 0-1.867l8-8c0.533-0.533 1.333-0.533 1.867 0l8 8c0.533 0.533 0.533 1.333 0 1.867-0.267 0.267-0.533 0.4-0.933 0.4z"></path>
</symbol>
<symbol id="icon-house-chimney-2" viewBox="0 0 32 32">
<path d="M19.005 30.565c-0.552 0-1-0.448-1-1v-8c0-0.552-0.448-1-1-1h-2c-0.552 0-1 0.448-1 1v8c0 0.552-0.448 1-1 1h-8c-0.552 0-1-0.448-1-1v-11c0-0.552 0.448-1 1-1s1 0.448 1 1v10h6v-7c0-1.655 1.345-3 3-3h2c1.655 0 3 1.345 3 3v7h6v-10c0-0.552 0.448-1 1-1s1 0.448 1 1v11c0 0.552-0.448 1-1 1h-8z"></path>
<path d="M1.005 17.565c-0.267 0-0.519-0.104-0.707-0.293-0.389-0.389-0.389-1.024 0-1.415l13.587-13.585c0.565-0.565 1.319-0.877 2.121-0.877 0.801 0 1.555 0.312 2.121 0.877l2.941 2.941c0.143-0.379 0.508-0.649 0.936-0.649h5c0.552 0 1 0.448 1 1v6.585l3.707 3.707c0.389 0.389 0.389 1.024 0 1.415-0.189 0.189-0.44 0.293-0.707 0.293s-0.519-0.104-0.707-0.293l-13.585-13.583c-0.188-0.188-0.439-0.292-0.707-0.292s-0.519 0.104-0.708 0.292l-13.587 13.585c-0.188 0.188-0.44 0.292-0.707 0.292zM26.005 10.152v-3.587h-3v0.585l3 3.001z"></path>
</symbol>
<symbol id="icon-saving-piggy-bank" viewBox="0 0 32 32">
<path d="M20 30.667c-1.103 0-2-0.897-2-2v-0.329c-0.973 0.216-1.972 0.324-2.977 0.324-1.021 0-2.035-0.112-3.023-0.335v0.34c0 1.103-0.897 2-2 2h-2c-1.103 0-2-0.897-2-2v-3.373c-0.869-0.767-1.624-1.648-2.245-2.627h-2.755c-0.552 0-1-0.448-1-1v-8c0-0.552 0.448-1 1-1h1.749c0.471-1.256 1.167-2.445 2.029-3.469l-0.768-5.389c-0.041-0.288 0.044-0.579 0.235-0.797 0.116-0.133 0.332-0.301 0.701-0.341 0.019-0.001 0.055-0.003 0.055-0.003 0.165 0 3.944 0.039 5.956 2.671 1.237-0.337 2.535-0.508 3.863-0.508 3.113 0 6.121 0.932 8.472 2.624 2.704 1.947 4.339 4.791 4.649 8.057 1.204-0.4 2.057-1.541 2.057-2.844 0-0.552 0.448-1 1-1s1.001 0.448 1.001 1c0 2.419-1.712 4.46-4.047 4.908-0.263 2.989-1.687 5.781-3.953 7.744v3.348c0 1.103-0.897 2-2 2h-2zM19 26.027c0.212 0 0.415 0.065 0.587 0.189 0.259 0.188 0.413 0.491 0.413 0.811v1.64h2v-3.817c0-0.305 0.137-0.592 0.377-0.783 2.273-1.807 3.593-4.507 3.623-7.411 0-3.957-2.108-6.307-3.876-7.58-2.015-1.451-4.605-2.249-7.293-2.249-1.385 0-2.724 0.213-3.98 0.632-0.103 0.035-0.209 0.052-0.317 0.052-0.364 0-0.7-0.199-0.876-0.517-0.78-1.415-2.405-1.968-3.484-2.184l0.651 4.561c0.043 0.299-0.049 0.596-0.253 0.817-0.984 1.072-1.725 2.375-2.148 3.768-0.127 0.425-0.512 0.711-0.956 0.711h-1.467v6h2.32c0.359 0 0.691 0.193 0.868 0.504 0.632 1.108 1.453 2.077 2.443 2.883 0.235 0.191 0.369 0.473 0.369 0.776v3.837h2v-1.655c0-0.32 0.155-0.624 0.416-0.812 0.171-0.124 0.373-0.189 0.584-0.189 0.108 0 0.215 0.017 0.317 0.052 1.188 0.397 2.435 0.599 3.704 0.599 1.256 0 2.488-0.197 3.664-0.585 0.103-0.032 0.208-0.049 0.315-0.049z"></path>
<path d="M11 11.667c-0.383 0-0.727-0.213-0.896-0.556-0.119-0.24-0.137-0.511-0.052-0.764s0.264-0.457 0.504-0.576c1.365-0.676 2.903-1.033 4.444-1.033s3.077 0.357 4.443 1.033c0.239 0.119 0.419 0.323 0.504 0.576s0.068 0.524-0.051 0.764c-0.169 0.343-0.513 0.556-0.896 0.556-0.153 0-0.305-0.036-0.444-0.104-1.092-0.54-2.321-0.827-3.556-0.827s-2.464 0.285-3.556 0.827c-0.137 0.068-0.291 0.104-0.444 0.104z"></path>
<path d="M10 15.167c0 0.828-0.672 1.5-1.5 1.5s-1.5-0.672-1.5-1.5c0-0.828 0.672-1.5 1.5-1.5s1.5 0.672 1.5 1.5z"></path>
</symbol>
</defs>
</svg>
