<!-- Generated by IcoMoon.io -->
<svg version="1.1" xmlns="http://www.w3.org/2000/svg" width="32" height="32" viewBox="0 0 32 32">
<title>building-house</title>
<path d="M3.001 32c-0.552 0-1-0.448-1-1v-5h-1c-0.387 0-0.741-0.227-0.905-0.576s-0.111-0.767 0.137-1.064l5-6c0.191-0.229 0.471-0.36 0.768-0.36h9c0.112 0 0.223 0.020 0.34 0.063 0.031 0.012 0.059 0.024 0.087 0.039 0.073 0.035 0.143 0.079 0.205 0.131 0.027 0.019 0.055 0.041 0.075 0.061l6 6c0.389 0.389 0.389 1.024 0 1.415-0.189 0.189-0.44 0.293-0.707 0.293s-0.519-0.104-0.707-0.293l-0.293-0.293v5.585c0 0.552-0.448 1-1 1h-16zM18.001 30v-6.585l-2.933-2.933-3.067 3.68v5.839h2v-3c0-0.552 0.448-1 1-1s1 0.448 1 1v3h2zM10.001 30v-4h-6v4h6zM9.532 24l3.333-4h-6.396l-3.333 4h6.396z"></path>
<path d="M25.001 26c-0.552 0-1-0.448-1-1s0.448-1 1-1h3v-16.585l-4.953-4.953-5.047 5.732v6.808c0 0.552-0.448 1-1 1s-1-0.448-1-1v-5.003c-0.015 0-6 0.001-6 0.001v5c0 0.552-0.448 1-1 1s-1-0.448-1-1v-5h-1.044c-0.392 0-0.749-0.231-0.911-0.588-0.163-0.357-0.1-0.779 0.16-1.072l7.044-8c0.189-0.216 0.464-0.34 0.751-0.34h9c0.112 0 0.224 0.021 0.34 0.063 0.017 0.007 0.064 0.027 0.080 0.035 0.079 0.037 0.148 0.081 0.211 0.132 0.028 0.020 0.056 0.041 0.076 0.063l8 8c0.189 0.188 0.293 0.44 0.293 0.707s-0.104 0.519-0.293 0.707-0.44 0.293-0.707 0.293-0.519-0.104-0.707-0.293l-0.293-0.293v15.588c0 0.552-0.448 1-1 1h-4zM15.505 8l5.283-6h-6.335l-5.284 6h6.336z"></path>
<path d="M21.001 12c-0.552 0-1-0.448-1-1v-1c0-0.552 0.448-1 1-1s1 0.448 1 1v1c0 0.552-0.449 1-1 1z"></path>
<path d="M25.001 12c-0.552 0-1-0.448-1-1v-1c0-0.552 0.448-1 1-1s1 0.448 1 1v1c0 0.552-0.449 1-1 1z"></path>
<path d="M21.001 17c-0.552 0-1-0.448-1-1v-1c0-0.552 0.448-1 1-1s1 0.448 1 1v1c0 0.552-0.449 1-1 1z"></path>
<path d="M25.001 17c-0.552 0-1-0.448-1-1v-1c0-0.552 0.448-1 1-1s1 0.448 1 1v1c0 0.552-0.449 1-1 1z"></path>
<path d="M25.001 22c-0.552 0-1-0.448-1-1v-1c0-0.552 0.448-1 1-1s1 0.448 1 1v1c0 0.552-0.449 1-1 1z"></path>
</svg>
