<!-- Generated by IcoMoon.io -->
<svg version="1.1" xmlns="http://www.w3.org/2000/svg" width="32" height="32" viewBox="0 0 32 32">
<title>building-modern</title>
<path d="M1 32c-0.552 0-1-0.448-1-1s0.448-1 1-1h1v-15.667c0-1.287 1.047-2.333 2.333-2.333h11.333c1.287 0 2.333 1.047 2.333 2.333v16.667c0 0.552-0.448 1-1 1h-16zM16 30v-15.667c0-0.184-0.149-0.333-0.333-0.333h-11.333c-0.184 0-0.333 0.149-0.333 0.333v1.667h2c0.552 0 1 0.448 1 1s-0.448 1-1 1h-2v12h2v-3c0-1.655 1.345-3 3-3s3 1.345 3 3v3h4zM10 30v-3c0-0.552-0.448-1-1-1s-1 0.448-1 1v3h2z"></path>
<path d="M21 32c-0.552 0-1-0.448-1-1v-6c0-1.655 1.345-3 3-3s3 1.345 3 3v5h2v-27c0-0.552-0.448-1-1-1h-12c-0.552 0-1 0.448-1 1v1h5c0.552 0 1 0.448 1 1s-0.448 1-1 1h-5v2h1c0.552 0 1 0.448 1 1s-0.448 1-1 1h-2c-0.552 0-1-0.448-1-1v-6c0-1.655 1.345-3 3-3h12c1.655 0 3 1.345 3 3v27h1c0.552 0 1 0.448 1 1s-0.448 1-1 1h-10zM24 30v-5c0-0.552-0.448-1-1-1s-1 0.448-1 1v5h2z"></path>
</svg>
