<!-- Generated by IcoMoon.io -->
<svg version="1.1" xmlns="http://www.w3.org/2000/svg" width="32" height="32" viewBox="0 0 32 32">
<title>business-contract-approve</title>
<path d="M10.001 30c-1.655 0-3-1.345-3-3v-8.764l-0.179-0.151c-2.4-2.019-4.881-4.108-4.82-6.675v-5.584l-1.785-2.249c-0.343-0.432-0.269-1.063 0.163-1.405 0.176-0.139 0.396-0.216 0.62-0.216 0.307 0 0.593 0.137 0.784 0.379l2 2.523c0.14 0.176 0.217 0.396 0.217 0.621v5.956c-0.031 1.303 1.276 2.675 3 4.176v-4.343l-0.741-0.759c-0.385-0.395-0.377-1.029 0.017-1.415 0.188-0.184 0.436-0.284 0.699-0.284 0.272 0 0.525 0.107 0.716 0.301l0.948 0.971c0.056 0.047 0.107 0.099 0.151 0.153l1.26 1.291c0.119 0.121 0.277 0.188 0.448 0.188 0.164 0 0.319-0.063 0.436-0.176 0.119-0.115 0.185-0.271 0.187-0.437 0.003-0.167-0.061-0.324-0.177-0.444l-3.667-3.741c-0.183-0.187-0.284-0.435-0.284-0.699v-1.864c-0.183-1.005-0.564-1.947-1.135-2.796-0.307-0.457-0.185-1.080 0.273-1.388 0.165-0.111 0.357-0.169 0.556-0.169 0.335 0 0.645 0.165 0.832 0.443 0.744 1.109 1.236 2.34 1.46 3.656 0.009 0.057 0.013 0.112 0.013 0.168v1.543l3.383 3.451c0.491 0.504 0.755 1.167 0.745 1.868-0.009 0.7-0.291 1.356-0.792 1.845-0.492 0.48-1.143 0.744-1.831 0.744-0.544 0-1.061-0.163-1.497-0.467v13.749c0 0.552 0.448 1 1 1h10c0.552 0 1 0.448 1 1s-0.448 1-1 1h-10z"></path>
<path d="M25.319 31.995c-0.335 0-0.645-0.165-0.831-0.443-0.744-1.108-1.235-2.336-1.459-3.649-0.009-0.055-0.015-0.111-0.015-0.168v-1.54l-3.387-3.452c-1.012-1.039-0.991-2.704 0.045-3.713 0.493-0.481 1.128-0.745 1.785-0.745 0.031 0 0.061 0 0.093 0.001 0.688 0.008 1.344 0.291 1.833 0.792l0.617 0.632v-4.636c0-0.388 0.227-0.744 0.579-0.907 0.133-0.061 0.276-0.093 0.421-0.093 0.236 0 0.464 0.084 0.644 0.236 2.416 2.041 4.412 3.923 4.356 6.281v5.583l1.784 2.249c0.165 0.209 0.24 0.471 0.209 0.736s-0.163 0.503-0.372 0.669c-0.176 0.139-0.396 0.216-0.621 0.216v0c-0.307 0-0.593-0.137-0.784-0.379l-2-2.523c-0.139-0.176-0.216-0.396-0.216-0.621v-5.955c0.025-1.069-0.9-2.216-2-3.271v4.868c0 0.408-0.244 0.772-0.623 0.927-0.12 0.049-0.247 0.073-0.376 0.073-0.268 0-0.528-0.109-0.716-0.301l-2.333-2.389c-0.117-0.12-0.273-0.187-0.44-0.189-0.112 0.003-0.299 0.036-0.443 0.177-0.247 0.24-0.252 0.636-0.012 0.883l3.671 3.741c0.184 0.188 0.287 0.437 0.287 0.7v1.861c0.183 1.004 0.564 1.943 1.135 2.792 0.149 0.221 0.203 0.488 0.151 0.751s-0.203 0.488-0.424 0.637c-0.168 0.109-0.36 0.168-0.56 0.168z"></path>
<path d="M12.001 25c-0.552 0-1-0.448-1-1s0.448-1 1-1h5.304c0.552 0 1 0.448 1 1s-0.448 1-1 1h-5.304z"></path>
<path d="M12.001 20c-0.552 0-1-0.448-1-1s0.448-1 1-1h2c0.552 0 1 0.448 1 1s-0.449 1-1 1h-2z"></path>
<path d="M21.001 14c-3.86 0-7-3.14-7-7s3.14-7 7-7c0.552 0 1 0.448 1 1s-0.448 1-1 1c-2.757 0-5 2.243-5 5s2.243 5 5 5 5-2.243 5-5c0-0.552 0.448-1 1-1s1 0.448 1 1c0 3.86-3.14 7-7 7z"></path>
<path d="M21.001 9.187c-0.465 0-0.904-0.181-1.235-0.509l-1.724-1.725c-0.389-0.391-0.389-1.024 0-1.415 0.189-0.189 0.44-0.292 0.708-0.292s0.519 0.104 0.708 0.293l1.544 1.545 5.293-5.292c0.189-0.189 0.44-0.293 0.707-0.293s0.519 0.104 0.707 0.293c0.189 0.189 0.293 0.44 0.293 0.707s-0.104 0.519-0.293 0.707l-5.467 5.467c-0.328 0.331-0.767 0.513-1.236 0.515 0 0-0.001 0-0.001 0h-0.004z"></path>
</svg>
