<!-- Generated by IcoMoon.io -->
<svg version="1.1" xmlns="http://www.w3.org/2000/svg" width="32" height="32" viewBox="0 0 32 32">
<title>cash-briefcase</title>
<path d="M16 26c-0.552 0-1-0.448-1-1v-0.605c-1.739-0.365-3-1.659-3-3.145 0-0.552 0.448-1 1-1s1 0.448 1 1c0 0.591 0.855 1.251 2 1.251 1.144 0 2-0.66 2-1.251 0-0.677-0.916-1.249-2-1.249-2.205 0-4-1.459-4-3.251 0-1.487 1.261-2.779 3-3.144v-0.605c0-0.552 0.448-1 1-1s1 0.448 1 1v0.605c1.739 0.364 3 1.656 3 3.144 0 0.552-0.448 1-1 1s-1-0.448-1-1c0-0.677-0.916-1.249-2-1.249s-2 0.572-2 1.249c0 0.591 0.855 1.251 2 1.251 2.205 0 4 1.457 4 3.249 0 1.487-1.261 2.78-3 3.145v0.605c0 0.552-0.448 1-1 1z"></path>
<path d="M4 30c-1.655 0-3-1.345-3-3v-16c0-1.655 1.345-3 3-3h5.279l1.316-3.949c0.411-1.227 1.553-2.051 2.847-2.051h5.117c1.293 0 2.436 0.824 2.847 2.051l1.316 3.949h5.279c1.655 0 3 1.345 3 3v16c0 1.655-1.345 3-3 3h-24zM4 10c-0.552 0-1 0.448-1 1v16c0 0.552 0.448 1 1 1h24c0.552 0 1-0.448 1-1v-16c0-0.552-0.448-1-1-1h-24zM20.612 8l-1.105-3.317c-0.136-0.408-0.517-0.683-0.948-0.683h-5.117c-0.431 0-0.812 0.275-0.949 0.684l-1.104 3.316h9.224z"></path>
</svg>
