<!-- Generated by IcoMoon.io -->
<svg version="1.1" xmlns="http://www.w3.org/2000/svg" width="32" height="32" viewBox="0 0 32 32">
<title>house-chimney-2</title>
<path d="M19.005 30.565c-0.552 0-1-0.448-1-1v-8c0-0.552-0.448-1-1-1h-2c-0.552 0-1 0.448-1 1v8c0 0.552-0.448 1-1 1h-8c-0.552 0-1-0.448-1-1v-11c0-0.552 0.448-1 1-1s1 0.448 1 1v10h6v-7c0-1.655 1.345-3 3-3h2c1.655 0 3 1.345 3 3v7h6v-10c0-0.552 0.448-1 1-1s1 0.448 1 1v11c0 0.552-0.448 1-1 1h-8z"></path>
<path d="M1.005 17.565c-0.267 0-0.519-0.104-0.707-0.293-0.389-0.389-0.389-1.024 0-1.415l13.587-13.585c0.565-0.565 1.319-0.877 2.121-0.877 0.801 0 1.555 0.312 2.121 0.877l2.941 2.941c0.143-0.379 0.508-0.649 0.936-0.649h5c0.552 0 1 0.448 1 1v6.585l3.707 3.707c0.389 0.389 0.389 1.024 0 1.415-0.189 0.189-0.44 0.293-0.707 0.293s-0.519-0.104-0.707-0.293l-13.585-13.583c-0.188-0.188-0.439-0.292-0.707-0.292s-0.519 0.104-0.708 0.292l-13.587 13.585c-0.188 0.188-0.44 0.292-0.707 0.292zM26.005 10.152v-3.587h-3v0.585l3 3.001z"></path>
</svg>
