<!-- Generated by IcoMoon.io -->
<svg version="1.1" xmlns="http://www.w3.org/2000/svg" width="32" height="32" viewBox="0 0 32 32">
<title>login-3</title>
<path d="M19 30.009c-0.552 0-1-0.448-1-1s0.448-1 1-1h6c0.552 0 1-0.448 1-1v-2c0-0.552 0.448-1 1-1s1 0.448 1 1v2c0 1.655-1.345 3-3 3h-6z"></path>
<path d="M27 10.009c-0.552 0-1-0.448-1-1v-2c0-0.552-0.448-1-1-1h-6c-0.552 0-1-0.448-1-1s0.448-1 1-1h6c1.655 0 3 1.345 3 3v2c0 0.551-0.448 1-1 1z"></path>
<path d="M13.999 32.008c-0.095 0-0.191-0.007-0.285-0.021l-11.996-1.713c-0.98-0.139-1.717-0.989-1.717-1.98v-23.323c0-0.937 0.664-1.76 1.581-1.956l11.969-2.955c0.156-0.033 0.3-0.049 0.443-0.049 0.94 0 1.765 0.664 1.961 1.579 0.031 0.137 0.045 0.279 0.045 0.42v28c0 0.535-0.208 1.037-0.587 1.415-0.377 0.377-0.88 0.584-1.415 0.584v0zM2.031 4.963l-0.031 23.332c0 0 12.001 1.713 12.003 1.713l-0.003-28-11.969 2.955z"></path>
<path d="M24 22.008c-0.267 0-0.519-0.104-0.707-0.293l-4-4c-0.017-0.017-0.035-0.037-0.051-0.059-0.073-0.084-0.128-0.172-0.167-0.267v0c-0.008-0.020-0.015-0.040-0.020-0.060-0.031-0.091-0.047-0.184-0.052-0.281-0.001-0.033 0-0.065 0.003-0.096 0.007-0.096 0.023-0.179 0.049-0.257 0.012-0.037 0.024-0.072 0.041-0.108 0.047-0.105 0.112-0.203 0.196-0.285l4-4c0.189-0.189 0.44-0.293 0.707-0.293s0.519 0.104 0.707 0.293c0.189 0.188 0.293 0.44 0.293 0.707s-0.104 0.519-0.293 0.707l-2.293 2.293h8.585c0.552 0 1 0.448 1 1s-0.448 1-1 1h-8.585l2.293 2.293c0.189 0.189 0.293 0.44 0.293 0.707s-0.104 0.519-0.293 0.707-0.44 0.293-0.707 0.293z"></path>
<path d="M10.5 17.509c-0.827 0-1.5-0.673-1.5-1.5 0-0.764 0.567-1.4 1.323-1.489 0.059-0.011 0.117-0.016 0.177-0.016 0.403 0.001 0.78 0.159 1.063 0.441 0.283 0.284 0.439 0.661 0.437 1.061 0 0.828-0.673 1.503-1.5 1.503z"></path>
</svg>
