<!-- Generated by IcoMoon.io -->
<svg version="1.1" xmlns="http://www.w3.org/2000/svg" width="32" height="32" viewBox="0 0 32 32">
<title>saving-piggy-bank</title>
<path d="M20 30.667c-1.103 0-2-0.897-2-2v-0.329c-0.973 0.216-1.972 0.324-2.977 0.324-1.021 0-2.035-0.112-3.023-0.335v0.34c0 1.103-0.897 2-2 2h-2c-1.103 0-2-0.897-2-2v-3.373c-0.869-0.767-1.624-1.648-2.245-2.627h-2.755c-0.552 0-1-0.448-1-1v-8c0-0.552 0.448-1 1-1h1.749c0.471-1.256 1.167-2.445 2.029-3.469l-0.768-5.389c-0.041-0.288 0.044-0.579 0.235-0.797 0.116-0.133 0.332-0.301 0.701-0.341 0.019-0.001 0.055-0.003 0.055-0.003 0.165 0 3.944 0.039 5.956 2.671 1.237-0.337 2.535-0.508 3.863-0.508 3.113 0 6.121 0.932 8.472 2.624 2.704 1.947 4.339 4.791 4.649 8.057 1.204-0.4 2.057-1.541 2.057-2.844 0-0.552 0.448-1 1-1s1.001 0.448 1.001 1c0 2.419-1.712 4.46-4.047 4.908-0.263 2.989-1.687 5.781-3.953 7.744v3.348c0 1.103-0.897 2-2 2h-2zM19 26.027c0.212 0 0.415 0.065 0.587 0.189 0.259 0.188 0.413 0.491 0.413 0.811v1.64h2v-3.817c0-0.305 0.137-0.592 0.377-0.783 2.273-1.807 3.593-4.507 3.623-7.411 0-3.957-2.108-6.307-3.876-7.58-2.015-1.451-4.605-2.249-7.293-2.249-1.385 0-2.724 0.213-3.98 0.632-0.103 0.035-0.209 0.052-0.317 0.052-0.364 0-0.7-0.199-0.876-0.517-0.78-1.415-2.405-1.968-3.484-2.184l0.651 4.561c0.043 0.299-0.049 0.596-0.253 0.817-0.984 1.072-1.725 2.375-2.148 3.768-0.127 0.425-0.512 0.711-0.956 0.711h-1.467v6h2.32c0.359 0 0.691 0.193 0.868 0.504 0.632 1.108 1.453 2.077 2.443 2.883 0.235 0.191 0.369 0.473 0.369 0.776v3.837h2v-1.655c0-0.32 0.155-0.624 0.416-0.812 0.171-0.124 0.373-0.189 0.584-0.189 0.108 0 0.215 0.017 0.317 0.052 1.188 0.397 2.435 0.599 3.704 0.599 1.256 0 2.488-0.197 3.664-0.585 0.103-0.032 0.208-0.049 0.315-0.049z"></path>
<path d="M11 11.667c-0.383 0-0.727-0.213-0.896-0.556-0.119-0.24-0.137-0.511-0.052-0.764s0.264-0.457 0.504-0.576c1.365-0.676 2.903-1.033 4.444-1.033s3.077 0.357 4.443 1.033c0.239 0.119 0.419 0.323 0.504 0.576s0.068 0.524-0.051 0.764c-0.169 0.343-0.513 0.556-0.896 0.556-0.153 0-0.305-0.036-0.444-0.104-1.092-0.54-2.321-0.827-3.556-0.827s-2.464 0.285-3.556 0.827c-0.137 0.068-0.291 0.104-0.444 0.104z"></path>
<path d="M10 15.167c0 0.828-0.672 1.5-1.5 1.5s-1.5-0.672-1.5-1.5c0-0.828 0.672-1.5 1.5-1.5s1.5 0.672 1.5 1.5z"></path>
</svg>
