<!-- Generated by IcoMoon.io -->
<svg version="1.1" xmlns="http://www.w3.org/2000/svg" width="32" height="32" viewBox="0 0 32 32">
<title>single-neutral-circle</title>
<path d="M16 21c-4.411 0-8-3.589-8-8s3.589-8 8-8 8 3.589 8 8-3.589 8-8 8zM16 7c-3.308 0-6 2.692-6 6s2.692 6 6 6c3.308 0 6-2.692 6-6s-2.692-6-6-6z"></path>
<path d="M16 32c-3.569 0-6.948-1.157-9.776-3.347-0.028-0.016-0.088-0.051-0.147-0.109-0.007-0.007-0.015-0.015-0.021-0.023-3.849-3.063-6.056-7.623-6.056-12.521 0-8.823 7.177-16 16-16s16 7.177 16 16c0 4.899-2.207 9.459-6.057 12.521-0.007 0.008-0.013 0.015-0.020 0.021-0.057 0.057-0.116 0.092-0.149 0.112-2.825 2.188-6.204 3.345-9.773 3.345zM8.379 27.735c2.275 1.484 4.896 2.265 7.621 2.265 2.727 0 5.348-0.781 7.623-2.265-2.139-1.763-4.821-2.727-7.621-2.727-2.8-0.001-5.483 0.964-7.623 2.727zM16 2c-7.72 0-14 6.28-14 14 0 4.031 1.725 7.833 4.749 10.499 2.553-2.253 5.821-3.489 9.251-3.489 3.431 0 6.697 1.236 9.251 3.488 3.024-2.667 4.749-6.468 4.749-10.499 0-7.719-6.28-13.999-14-13.999z"></path>
</svg>
